<svg xmlns="http://www.w3.org/2000/svg" viewBox="0 0 159.65 55.73"><defs><style>.cls-1{fill:#838383;}</style></defs><title>Helm_logo</title><g id="Layer_2" data-name="Layer 2"><g id="Layer_1-2" data-name="Layer 1"><path class="cls-1" d="M78.14,44.05A11.16,11.16,0,0,1,67.58,50.3c-6,0-11.77-4.44-12.55-12H85.56c.07-12.9-9-20.66-18.33-20.66C57.15,17.66,49,26.26,49,36.77a18.59,18.59,0,0,0,18.61,19c8.22,0,14.34-4.21,17-11.68Zm-11-21c5.28,0,10.29,3.95,11.77,9.87H55.38C56.94,26.76,62.15,23.09,67.16,23.09Z"/><polygon class="cls-1" points="6.23 54.88 0 54.88 0 3.09 6.23 0 6.23 54.88"/><polygon class="cls-1" points="40.68 20.93 34.45 20.93 34.45 3.09 40.68 0 40.68 20.93"/><polygon class="cls-1" points="12.46 26.66 12.46 32.39 34.45 32.39 34.45 54.89 40.68 54.89 40.68 26.66 12.46 26.66"/><path class="cls-1" d="M98.77,0V54.88H92.84v-52Z"/><path class="cls-1" d="M159.65,54.88h-6V32.25c0-5.64-2.68-9.09-8.25-9.09-4.94,0-8.53,4.09-8.53,9.52v22.2H131V32.25c0-5.64-2.81-9.09-8.17-9.09-4.94,0-8.6,4.09-8.6,9.52v22.2h-6V20.53L114,17.66v4.87a11.76,11.76,0,0,1,9.65-4.87,12.29,12.29,0,0,1,11.21,6.21,12.74,12.74,0,0,1,11.35-6.21c8.39,0,13.47,5.71,13.47,14.74Z"/></g></g></svg>